<svg width="24" height="24" viewBox="0 0 24 24" fill="none" xmlns="http://www.w3.org/2000/svg">
<g id="Icon/fail">
<g id="Vector">
<path d="M19.293 3.29309C19.6835 2.90257 20.317 2.90257 20.7075 3.29309C21.0977 3.68358 21.0978 4.3167 20.7075 4.70716L13.414 11.9996L20.707 19.2926L20.7759 19.3688C21.0962 19.7616 21.0731 20.341 20.707 20.7072C20.3165 21.0976 19.6835 21.0975 19.293 20.7072L12 13.4142L4.70701 20.7072L4.63084 20.7755C4.23808 21.0958 3.65905 21.0732 3.29295 20.7072C2.92685 20.341 2.90422 19.7615 3.22459 19.3688L3.29295 19.2931L10.5859 12.0001L3.29295 4.70716C2.90245 4.31665 2.90248 3.68362 3.29295 3.29309C3.68347 2.9026 4.3165 2.90259 4.70701 3.29309L12 10.5856L19.293 3.29309Z" fill="white"/>
<path d="M18.9952 2.88643C19.565 2.37147 20.4351 2.37156 21.005 2.88643L21.0611 2.93965L21.1143 2.99581C21.6287 3.56553 21.6288 4.43486 21.1143 5.0046L21.0611 5.06075L14.1212 11.9997L21.0694 18.948L21.0777 18.9572L21.1466 19.0334L21.1554 19.0427L21.1632 19.0529C21.6141 19.6059 21.6121 20.4041 21.1573 20.9543L21.0606 21.0607C20.4931 21.6282 19.584 21.6458 18.9952 21.114L18.9395 21.0607L12.0001 14.1213L5.06063 21.0607L5.0411 21.0793L4.96493 21.1477L4.95614 21.1555L4.94686 21.1628C4.39437 21.6134 3.59638 21.6125 3.04599 21.1579L2.93954 21.0607C2.39008 20.5112 2.3564 19.6423 2.837 19.0529L2.8536 19.0334L2.92196 18.9577L2.93026 18.9484L2.93954 18.9397L9.87899 12.0002L2.93954 5.06075C2.35375 4.47495 2.35388 3.52541 2.93954 2.93965L2.9952 2.88643C3.58401 2.35434 4.49311 2.37215 5.06063 2.93965L12.0001 9.87862L18.9395 2.93965L18.9952 2.88643ZM20.3536 3.6462C20.1705 3.46353 19.8809 3.45246 19.6847 3.61251L19.6466 3.64669L12.0001 11.2927L4.3536 3.64669C4.17057 3.46366 3.88104 3.45237 3.68466 3.61251L3.64657 3.64669C3.45132 3.84199 3.45136 4.15851 3.64657 4.35372L11.2931 12.0002L3.65487 19.6379L3.60702 19.6906C3.4521 19.8866 3.46575 20.1729 3.64657 20.3537L3.68173 20.3859C3.86364 20.5363 4.12733 20.5376 4.31112 20.3903L4.36337 20.3435L12.0001 12.7072L19.6466 20.3537L19.6847 20.3879C19.8811 20.5479 20.1707 20.5366 20.3536 20.3537L20.3858 20.3181C20.5364 20.1358 20.5378 19.8716 20.3907 19.6882L20.3448 19.6374L12.7071 11.9997L20.3541 4.35372L20.3883 4.31563C20.5482 4.11929 20.5365 3.82923 20.3536 3.6462Z" fill="white"/>
</g>
</g>
</svg>
