<svg width="28" height="28" viewBox="0 0 28 28" fill="none" xmlns="http://www.w3.org/2000/svg">
<g id="Icon/flip">
<g id="Vector">
<path d="M6.17516 14.8811C6.63077 14.4456 7.36931 14.4456 7.82491 14.8811L11.3249 18.227L11.4053 18.3114C11.779 18.7495 11.752 19.3958 11.3249 19.8041C10.8978 20.2125 10.2217 20.2382 9.76349 19.8809L9.67519 19.8041L8.43331 18.6169C8.78014 19.7282 9.44295 20.5978 10.2864 21.2505C11.5766 22.2489 13.346 22.7797 15.1668 22.7797C16.9876 22.7797 18.757 22.2489 20.0471 21.2505C21.3083 20.2745 22.1668 18.814 22.1668 16.785C22.1668 16.169 22.6892 15.6697 23.3335 15.6697C23.9778 15.6697 24.5002 16.169 24.5002 16.785C24.5002 19.4959 23.3169 21.5905 21.5157 22.9845C19.7433 24.3561 17.4292 25.0103 15.1668 25.0103C12.9043 25.0103 10.5902 24.3561 8.81784 22.9845C7.3548 21.8522 6.30001 20.2576 5.95526 18.2461L4.32488 19.8041C3.86928 20.2397 3.13074 20.2396 2.67512 19.8041C2.21951 19.3686 2.21951 18.6626 2.67512 18.227L6.17516 14.8811Z" fill="#49AB94"/>
<path d="M12.8334 2.84367C15.0959 2.84369 17.41 3.49791 19.1824 4.86951C20.6454 6.00176 21.7002 7.59641 22.0449 9.60792L23.6753 8.04987C24.1309 7.61436 24.8695 7.61433 25.3251 8.04987C25.7806 8.48541 25.7806 9.19144 25.3251 9.62698L21.825 12.9729C21.3694 13.4084 20.6309 13.4084 20.1753 12.9729L16.6753 9.62698L16.5949 9.54257C16.2211 9.10451 16.2481 8.45822 16.6753 8.04987C17.1024 7.64156 17.7785 7.61576 18.2367 7.97309L18.325 8.04987L19.5669 9.23706C19.2201 8.1258 18.5572 7.25622 17.7138 6.60346C16.4237 5.60512 14.6542 5.07429 12.8334 5.07428C11.0126 5.07428 9.2432 5.60513 7.95309 6.60346C6.69182 7.57952 5.83335 9.04 5.83335 11.069C5.83335 11.685 5.31097 12.1843 4.66668 12.1843C4.02234 12.1843 3.5 11.685 3.5 11.069C3.5 8.35807 4.68326 6.26347 6.48448 4.86951C8.25688 3.49792 10.571 2.84367 12.8334 2.84367Z" fill="#49AB94"/>
<path d="M24.2044 16.703C24.1639 16.3235 23.8453 16.0065 23.4251 15.9658L23.3334 15.9613C22.8377 15.9613 22.4584 16.3424 22.4584 16.785L22.4561 16.9821C22.4054 18.8738 21.6246 20.2915 20.4697 21.2825L20.2253 21.4813C18.9596 22.4607 17.2674 23.0012 15.5177 23.0649L15.1667 23.0712C13.4107 23.0712 11.6878 22.5918 10.3668 21.671L10.1081 21.4813C9.22253 20.7959 8.52124 19.8778 8.15478 18.7036C8.1153 18.5768 8.16664 18.4393 8.27954 18.3692C8.39256 18.2991 8.53887 18.3143 8.63501 18.4062L9.87402 19.5906L9.94694 19.6538C10.2928 19.9203 10.8037 19.8989 11.1233 19.5934L11.1791 19.5347C11.4379 19.2357 11.4395 18.8074 11.1882 18.5071L11.1176 18.4319L7.62329 15.092C7.30187 14.7847 6.78892 14.7656 6.44352 15.0344L6.37687 15.092L2.87687 18.4376C2.54141 18.7583 2.54141 19.2727 2.87687 19.5934L2.94352 19.651C3.2889 19.9197 3.8019 19.9006 4.12329 19.5934L5.75366 18.0354L5.78442 18.0098C5.85963 17.9554 5.95739 17.9397 6.04703 17.9693C6.14922 18.0032 6.22475 18.0905 6.243 18.1966C6.5745 20.1309 7.58656 21.663 8.99617 22.7539L9.15852 22.8758C10.8491 24.118 13.0254 24.7187 15.1667 24.7187L15.5815 24.7113C17.656 24.6361 19.7321 23.9961 21.3373 22.7539L21.498 22.6263C23.1404 21.2864 24.2084 19.3198 24.2084 16.785L24.2044 16.703ZM5.54459 10.8719C5.59878 8.84975 6.48699 7.36934 7.77482 6.37272L8.03344 6.18302C9.3545 5.26218 11.0774 4.7828 12.8334 4.7828L13.1843 4.78906C14.9341 4.85285 16.6263 5.39332 17.892 6.37272L18.0561 6.50431C18.8641 7.17416 19.5018 8.04966 19.8454 9.15039C19.8849 9.27727 19.8335 9.41471 19.7206 9.48478C19.6076 9.55489 19.4613 9.53966 19.3651 9.44775L18.1256 8.26286L18.0526 8.19963C17.7285 7.95034 17.2596 7.95361 16.939 8.20646L16.8769 8.26058C16.5628 8.56077 16.5435 9.0292 16.8142 9.34977L16.8814 9.42098L20.3769 12.762L20.4435 12.8196C20.7889 13.0885 21.3018 13.0692 21.6233 12.762L25.1233 9.41642L25.1825 9.35376C25.4392 9.05339 25.4392 8.62363 25.1825 8.32324L25.1233 8.26058C24.8019 7.95348 24.2889 7.93422 23.9435 8.20304L23.8769 8.26058L22.2465 9.8186C22.1686 9.89305 22.056 9.91842 21.9537 9.88468C21.8514 9.85088 21.776 9.76356 21.7577 9.65739C21.4469 7.8439 20.5372 6.38402 19.2632 5.30973L19.004 5.1001C17.3988 3.85789 15.3227 3.21789 13.2481 3.14274L12.8334 3.13534C10.6921 3.13534 8.51576 3.73603 6.82519 4.97819L6.66284 5.1001C4.92973 6.44137 3.79175 8.45244 3.79174 11.069L3.7963 11.151C3.8397 11.5577 4.2019 11.8927 4.66674 11.8927L4.75846 11.8882C5.20848 11.8446 5.54174 11.4839 5.54174 11.069L5.54459 10.8719ZM24.7917 16.785C24.7917 19.5026 23.6391 21.6318 21.8677 23.0775L21.6945 23.2153C19.9765 24.5449 17.7767 25.2154 15.6014 25.294L15.1667 25.302C12.9245 25.302 10.6207 24.6744 8.81274 23.3458L8.63956 23.2153C7.25265 22.142 6.21662 20.6636 5.77587 18.821L4.52661 20.015C3.9938 20.5243 3.1551 20.5562 2.58406 20.1107L2.47355 20.015C1.89778 19.4646 1.89777 18.5665 2.47355 18.016L5.97355 14.6704L6.08406 14.5747C6.6551 14.1291 7.49377 14.161 8.02661 14.6704L11.5266 18.016L11.5363 18.0257L11.6166 18.1106L11.6269 18.122C12.0711 18.6427 12.068 19.3977 11.6217 19.9147L11.5266 20.015C10.9932 20.5249 10.1546 20.5555 9.58406 20.1107C9.58002 20.1075 9.57597 20.1044 9.5721 20.101L9.4838 20.0241C9.48037 20.0211 9.47684 20.0181 9.47355 20.015L9.45988 20.0019C9.74701 20.3878 10.0858 20.7266 10.4648 21.0199L10.7012 21.193C11.9083 22.034 13.5087 22.4879 15.1667 22.4879L15.4977 22.4822C17.1465 22.4219 18.7156 21.9122 19.8687 21.0199L20.088 20.8416C21.1605 19.9224 21.8751 18.5986 21.8751 16.785C21.8751 15.9957 22.5406 15.378 23.3334 15.3779L23.4804 15.3853C24.2068 15.4561 24.7917 16.045 24.7917 16.785ZM6.12508 11.069C6.12508 11.809 5.54009 12.3979 4.81372 12.4687L4.66674 12.4761C3.87384 12.4761 3.20841 11.8583 3.20841 11.069C3.20842 8.2637 4.43694 6.08531 6.30623 4.63867L6.47941 4.50822C8.28732 3.17964 10.5912 2.552 12.8334 2.552L13.2681 2.55998C15.4433 2.63865 17.6426 3.30925 19.3606 4.63867L19.6403 4.86483C20.8864 5.91602 21.813 7.31616 22.2237 9.03247L23.4735 7.83903L23.5841 7.74333C24.1551 7.29766 24.9938 7.32966 25.5266 7.83903L25.628 7.94613C26.0687 8.46337 26.0688 9.21365 25.628 9.73088L25.5266 9.83797L22.0266 13.1836C21.4937 13.693 20.6551 13.725 20.0841 13.2793L19.9735 13.1836L16.4735 9.83797C16.4702 9.83482 16.467 9.83159 16.4639 9.82829L16.3835 9.74341C16.38 9.7397 16.3766 9.7359 16.3733 9.73201C15.8993 9.17657 15.9344 8.35451 16.4735 7.83903L16.5772 7.74902C17.0754 7.35526 17.7796 7.32801 18.3061 7.66528L18.4161 7.74333L18.4281 7.75301L18.5164 7.82992L18.5266 7.83903L18.5397 7.85156C18.2906 7.51683 18.0029 7.21736 17.6835 6.95264L17.5354 6.83415C16.3823 5.94183 14.8132 5.43209 13.1644 5.37183L12.8334 5.36613C11.1754 5.36613 9.57494 5.81997 8.36783 6.66097L8.13142 6.83415C6.93829 7.75754 6.12508 9.13443 6.12508 11.069Z" fill="#49AB94"/>
</g>
</g>
</svg>
