<svg width="24" height="24" viewBox="0 0 24 24" fill="none" xmlns="http://www.w3.org/2000/svg">
<g id="Icon/pen">
<g id="Union">
<path d="M6.79545 19.2336C7.09173 19.5301 6.91342 20.0377 6.49679 20.084L4.49563 20.3064C4.17733 20.3416 3.90829 20.0726 3.94355 19.7543L4.1659 17.7531C4.2122 17.3364 4.72018 17.1584 5.01664 17.4548L6.79545 19.2336Z" fill="#374440"/>
<path d="M19.3652 7.42757C19.5605 7.62281 19.5604 7.93941 19.3652 8.13468L8.2908 19.2091C8.09554 19.4044 7.77896 19.4044 7.5837 19.2091L5.0408 16.6662C4.84554 16.471 4.84554 16.1544 5.0408 15.9591L16.1152 4.88468C16.3105 4.68952 16.6271 4.68945 16.8223 4.88468L19.3652 7.42757Z" fill="#374440"/>
<path d="M21.3964 5.39637C21.5917 5.59163 21.5917 5.90821 21.3964 6.10348L20.4784 7.02154C20.2831 7.21666 19.9665 7.21676 19.7713 7.02154L17.2284 4.47865C17.0332 4.28343 17.0333 3.96682 17.2284 3.77154L18.1464 2.85348C18.3417 2.65822 18.6583 2.65822 18.8536 2.85348L21.3964 5.39637Z" fill="#374440"/>
</g>
</g>
</svg>
