<svg width="32" height="32" viewBox="0 0 32 32" fill="none" xmlns="http://www.w3.org/2000/svg">
<path d="M14.0654 3.71148C14.5005 3.22714 15.2265 3.20521 15.6872 3.66259C16.1477 4.12004 16.1687 4.88352 15.7337 5.36787L7.80852 14.1906H27.5198L27.6369 14.197C28.2154 14.2588 28.6671 14.7723 28.6671 15.3969C28.667 16.0215 28.2154 16.535 27.6369 16.5968L27.5198 16.6033H7.62814L15.7735 26.6794L15.8452 26.7772C16.175 27.2807 16.095 27.9749 15.6424 28.3794C15.1898 28.7839 14.5252 28.7552 14.1058 28.3317L14.0256 28.2416L4.27365 16.178C3.89472 15.7092 3.91175 15.016 4.31342 14.5687L14.0654 3.71148Z" fill="#B1BCB8"/>
<path d="M13.7042 3.13092C14.4023 2.49805 15.4698 2.50768 16.1567 3.18951L16.283 3.32753C16.8326 3.99492 16.8582 4.9717 16.3474 5.66868L16.2296 5.81321L9.30316 13.5241H27.52L27.5564 13.5248L27.6736 13.5313L27.7075 13.5339L27.8806 13.5613C28.7305 13.7375 29.3338 14.5137 29.3338 15.3972L29.3259 15.5723C29.2469 16.439 28.5885 17.1657 27.7075 17.2598C27.6962 17.261 27.6849 17.2618 27.6736 17.2624L27.5564 17.2689C27.5443 17.2696 27.5321 17.2702 27.52 17.2702H9.02451L16.2921 26.2605L16.311 26.2852L16.3826 26.3829L16.4028 26.4122C16.8764 27.1353 16.8043 28.1141 16.212 28.7533L16.0864 28.8764C15.4103 29.4805 14.4298 29.4759 13.7615 28.9193L13.6319 28.8008L13.6072 28.7748L13.5271 28.6843C13.5203 28.6766 13.5134 28.6689 13.5069 28.6609L3.75498 16.5971C3.17128 15.8749 3.19612 14.815 3.81748 14.1231L13.5694 3.26568L13.7042 3.13092ZM15.2172 4.13547C15.0521 3.97174 14.8128 3.95634 14.6339 4.09055L14.5616 4.15696L4.80967 15.0144C4.62774 15.217 4.61805 15.5439 4.79209 15.7592L14.5369 27.8132L14.5851 27.8672C14.7585 28.0373 15.0161 28.0451 15.1983 27.8822L15.2654 27.8093C15.4048 27.6254 15.422 27.3524 15.2895 27.1465L15.2465 27.0879L7.1098 17.0222C6.94835 16.8224 6.91579 16.5476 7.02646 16.3158C7.13716 16.0841 7.37124 15.9369 7.62803 15.9369H27.4946L27.5707 15.9323C27.7862 15.9067 28.0002 15.7017 28.0004 15.3972L27.9907 15.2865C27.9464 15.0431 27.7592 14.8832 27.5707 14.8607L27.5063 14.8575H7.80837C7.54534 14.8574 7.30684 14.7025 7.19964 14.4623C7.09247 14.222 7.13644 13.9406 7.31227 13.7448L15.2374 4.92258L15.2726 4.87961C15.4236 4.67183 15.414 4.37199 15.2537 4.17584L15.2172 4.13547Z" fill="#B1BCB8"/>
</svg>
