<svg width="48" height="48" viewBox="0 0 48 48" fill="none" xmlns="http://www.w3.org/2000/svg">
<g id="Frame 3">
<g id="Union">
<path d="M20.7723 13.4691C20.7723 13.4691 18.2468 15.5325 17.1793 20.3053C16.1717 25.6456 12.4211 29.629 9.71001 31.0298C8.95791 26.4792 11.3912 21.0065 11.9906 19.9766C9.07382 23.7991 7.8154 27.2676 8.366 30.7581C8.65111 32.5653 9.0447 33.3562 10.0741 35.125C12.2869 38.4946 16.4696 39.7231 18.6181 39.5953C19.4524 39.5457 20.7964 39.7347 21.8154 40.8845C22.8344 42.0348 21.6922 42.9347 20.8577 42.9844C18.0509 43.1515 11.6578 42.0496 8.23957 36.1761C7.17643 34.3493 6.73948 32.9996 6.49283 31.9752C6.40598 31.6145 6.30083 31.0438 6.30083 31.0438C3.91728 18.5387 16.3451 14.2709 20.7723 13.4691Z" fill="#296E59"/>
<path d="M38.5264 19.8105C39.0211 18.3599 40.378 18.8919 40.8386 19.584C42.3879 21.9123 44.6219 27.9559 41.2039 33.8289C40.1407 35.6556 39.1803 36.7052 38.4094 37.4293C38.1379 37.6843 37.6929 38.0599 37.6929 38.0599C27.9681 46.3604 18.0288 37.8169 15.1153 34.4142C15.1153 34.4142 18.1794 35.5525 22.8796 34.0832C28.0453 32.2788 33.3982 33.509 35.9766 35.1378C32.3801 38.0596 26.386 38.7057 25.1871 38.7057C29.9824 39.3003 33.6391 38.6476 36.4109 36.4293C37.8462 35.2806 38.3398 34.5468 39.3694 32.7778C41.2046 29.1917 40.1853 24.9837 38.9994 23.2018C38.5389 22.5099 38.032 21.2609 38.5264 19.8105Z" fill="#296E59"/>
<path d="M27.2792 26.0648C27.7717 26.126 28.1214 26.5715 28.0601 27.0601L28.0226 27.2947C27.915 27.8681 27.6541 28.6119 27.161 29.2598C26.5749 30.0297 25.642 30.6779 24.3079 30.6779C22.9739 30.6778 22.0407 30.0297 21.4548 29.2598C20.9618 28.6119 20.7007 27.868 20.5931 27.2947L20.5568 27.0601L20.5498 26.9695C20.5392 26.5175 20.8758 26.1221 21.3377 26.0648C21.7994 26.0077 22.2226 26.3085 22.3247 26.7488L22.341 26.8394L22.3633 26.98C22.43 27.3276 22.5963 27.7994 22.8901 28.1855C23.2035 28.5972 23.6411 28.8939 24.3079 28.894C24.9747 28.894 25.4122 28.597 25.7256 28.1855C26.0613 27.7445 26.2302 27.1915 26.2747 26.8394L26.2911 26.7488C26.3931 26.3084 26.8174 26.0075 27.2792 26.0648Z" fill="#296E59"/>
<path d="M22.4944 6C24.621 6.00002 26.0181 6.30014 27.0357 6.60046C27.3893 6.70484 27.9288 6.89624 27.943 6.90126C40.0516 11.1057 37.564 23.9156 36.0503 28.1205C36.0424 28.0742 35.4851 24.8959 31.879 21.6165C27.7208 18.0807 26.1186 12.8658 26.2513 9.83618C30.6002 11.4652 34.1608 16.2928 34.7602 17.3227C32.8816 12.9055 30.4833 10.091 27.161 8.81878C25.4406 8.16001 24.5536 8.10219 22.4944 8.10218C18.4463 8.31854 15.2829 11.2981 14.3204 13.2078C13.9465 13.9495 13.1094 15.0095 11.5961 15.31C10.0824 15.6103 9.86767 14.1784 10.2415 13.4366C11.4991 10.9415 15.6581 6 22.4944 6Z" fill="#296E59"/>
<path d="M18.9471 21.9858C19.934 21.9858 20.7347 22.7792 20.7348 23.7582C20.7348 24.7373 19.934 25.5317 18.9471 25.5317C17.9602 25.5316 17.1606 24.7372 17.1606 23.7582C17.1607 22.7792 17.9603 21.9859 18.9471 21.9858Z" fill="#296E59"/>
<path d="M29.6698 21.9858C30.6565 21.9861 31.4562 22.7793 31.4564 23.7582C31.4564 24.7371 30.6566 25.5314 29.6698 25.5317C28.6829 25.5317 27.8821 24.7373 27.8821 23.7582C27.8822 22.7792 28.683 21.9858 29.6698 21.9858Z" fill="#296E59"/>
</g>
</g>
</svg>
