<svg width="32" height="32" viewBox="0 0 32 32" fill="none" xmlns="http://www.w3.org/2000/svg">
<circle cx="16" cy="16" r="15" stroke="#AFCBFF" stroke-width="2"/>
<path d="M20 25.5C20 25.7761 19.7761 26 19.5 26H12.5C12.2239 26 12 25.7761 12 25.5V20.5C12 20.2239 12.2239 20 12.5 20H19.5C19.7761 20 20 20.2239 20 20.5V25.5Z" fill="#AFCBFF"/>
<path d="M20 19C20 19.2761 19.7761 19.5 19.5 19.5H12.5C12.2239 19.5 12 19.2761 12 19V18C12 17.7239 12.2239 17.5 12.5 17.5H19.5C19.7761 17.5 20 17.7239 20 18V19Z" fill="#AFCBFF"/>
<path d="M20 16.5C20 16.7761 19.7761 17 19.5 17H12.5C12.2239 17 12 16.7761 12 16.5V15.5C12 15.2239 12.2239 15 12.5 15H19.5C19.7761 15 20 15.2239 20 15.5V16.5Z" fill="#AFCBFF"/>
<path d="M17.3335 9.01747C17.3335 9.22093 17.4568 9.4041 17.6453 9.48069L19.6882 10.3108C19.8767 10.3874 20 10.5706 20 10.774V14C20 14.2761 19.7761 14.5 19.5 14.5H12.5C12.2239 14.5 12 14.2761 12 14V10.774C12 10.5706 12.1233 10.3874 12.3118 10.3108L14.3547 9.48069C14.5432 9.4041 14.6665 9.22093 14.6665 9.01747V8.5C14.6665 8.22386 14.8904 8 15.1665 8H16.8335C17.1096 8 17.3335 8.22386 17.3335 8.5V9.01747Z" fill="#AFCBFF"/>
<path d="M17.5 7C17.5 7.27614 17.2761 7.5 17 7.5H15C14.7239 7.5 14.5 7.27614 14.5 7V6.5C14.5 6.22386 14.7239 6 15 6H17C17.2761 6 17.5 6.22386 17.5 6.5V7Z" fill="#AFCBFF"/>
</svg>
