<svg width="32" height="32" viewBox="0 0 32 32" fill="none" xmlns="http://www.w3.org/2000/svg">
<circle cx="16" cy="16" r="15" stroke="#FFF7A3" stroke-width="2"/>
<path d="M23.2481 23.2071C23.2205 23.376 23.0745 23.5 22.9034 23.5C22.6921 23.5 22.5292 23.3139 22.5571 23.1045L23.3833 16.9077L23.3906 16.8384C23.4464 16.1218 22.8794 15.5001 22.1509 15.5C21.5277 15.5 21.0008 15.9614 20.9185 16.5791L20.0535 23.0661C20.0203 23.3145 19.8085 23.5 19.5579 23.5H19.517C19.2343 23.5 19.0078 23.2658 19.0173 22.9833L19.2241 16.791C19.2475 16.0851 18.6814 15.5001 17.9751 15.5C17.3433 15.5 16.818 15.9697 16.7363 16.5835L16.7261 16.708L16.5156 23.0167C16.5066 23.2862 16.2856 23.5 16.0159 23.5H15.9841C15.7144 23.5 15.4934 23.2862 15.4844 23.0167L15.2739 16.708C15.2515 16.0345 14.6988 15.5001 14.0249 15.5C13.3186 15.5 12.7525 16.0851 12.7759 16.791L12.9827 22.9833C12.9922 23.2658 12.7657 23.5 12.483 23.5H12.4421C12.1915 23.5 11.9797 23.3145 11.9465 23.0661L11.0815 16.5791C10.9992 15.9614 10.4723 15.5001 9.84912 15.5C9.09713 15.5 8.51733 16.1623 8.6167 16.9077L9.44288 23.1045C9.4708 23.3139 9.30789 23.5 9.09662 23.5C8.92546 23.5 8.77952 23.376 8.75188 23.2071L7.17704 13.5807C7.12725 13.2764 7.36211 13 7.67048 13H24.3295C24.6379 13 24.8727 13.2764 24.823 13.5807L23.2481 23.2071Z" fill="#FFF7A3"/>
<path d="M9.91846 16.0034C10.2601 16.0352 10.5397 16.299 10.5859 16.645L11.4245 22.9339C11.4645 23.2337 11.2313 23.5 10.9289 23.5H10.4378C10.1872 23.5 9.97527 23.3145 9.94215 23.0661L9.1123 16.8418C9.05288 16.3961 9.39951 16 9.84912 16L9.91846 16.0034Z" fill="#FFF7A3"/>
<path d="M14.1001 16.0039C14.4695 16.0408 14.7613 16.346 14.7739 16.7246L14.9828 22.9833C14.9922 23.2658 14.7657 23.5 14.483 23.5H13.9836C13.714 23.5 13.4929 23.2862 13.4839 23.0167L13.2759 16.7744C13.2618 16.351 13.6012 16 14.0249 16L14.1001 16.0039Z" fill="#FFF7A3"/>
<path d="M18.0532 16.0039C18.4396 16.044 18.7373 16.3774 18.7241 16.7744L18.5161 23.0167C18.5071 23.2862 18.286 23.5 18.0164 23.5H17.517C17.2343 23.5 17.0078 23.2658 17.0172 22.9833L17.2261 16.7246C17.2395 16.3206 17.5708 16 17.9751 16L18.0532 16.0039Z" fill="#FFF7A3"/>
<path d="M22.2339 16.0044C22.6422 16.0496 22.9434 16.424 22.8877 16.8418L22.0579 23.0661C22.0247 23.3145 21.8128 23.5 21.5622 23.5H21.0711C20.7687 23.5 20.5355 23.2337 20.5755 22.9339L21.4141 16.645C21.4634 16.2758 21.7783 16 22.1509 16L22.2339 16.0044Z" fill="#FFF7A3"/>
<path d="M26 12C26 12.2761 25.7761 12.5 25.5 12.5H6.5C6.22386 12.5 6 12.2761 6 12V11C6 10.7239 6.22386 10.5 6.5 10.5H25.5C25.7761 10.5 26 10.7239 26 11V12Z" fill="#FFF7A3"/>
<path d="M24 9.5C24 9.77614 23.7761 10 23.5 10H8.5C8.22386 10 8 9.77614 8 9.5V9C8 8.72386 8.22386 8.5 8.5 8.5H23.5C23.7761 8.5 24 8.72386 24 9V9.5Z" fill="#FFF7A3"/>
</svg>
