<svg width="32" height="32" viewBox="0 0 32 32" fill="none" xmlns="http://www.w3.org/2000/svg">
<circle cx="16" cy="16" r="15" stroke="#FFA9C6" stroke-width="2"/>
<path d="M20.4233 22.5C20.7276 22.5 20.9615 22.7695 20.9185 23.0708L20.5615 25.5708C20.5263 25.8171 20.3152 25.9999 20.0664 26H11.9336C11.6848 25.9999 11.4737 25.8171 11.4385 25.5708L11.0815 23.0708C11.0385 22.7695 11.2724 22.5 11.5767 22.5H20.4233Z" fill="#FFA9C6"/>
<path fill-rule="evenodd" clip-rule="evenodd" d="M21.8989 16.5C22.2114 16.5 22.4474 16.7835 22.3906 17.0908L21.5586 21.5908C21.5148 21.8278 21.308 22 21.0669 22H10.9331C10.692 22 10.4852 21.8278 10.4414 21.5908L9.60938 17.0908C9.55264 16.7835 9.78856 16.5 10.1011 16.5H21.8989ZM16 17C14.8955 17 14 17.8954 14 19C14 20.1045 14.8954 21 16 21C17.1046 21 18 20.1045 18 19C18 17.8954 17.1045 17 16 17Z" fill="#FFA9C6"/>
<path d="M22.1436 13C22.4716 13 22.7108 13.3107 22.627 13.6279L22.0981 15.6279C22.0401 15.8472 21.8416 16 21.6147 16H10.3853C10.1584 16 9.95989 15.8472 9.90186 15.6279L9.37305 13.6279C9.28921 13.3107 9.52838 13 9.85645 13H22.1436Z" fill="#FFA9C6"/>
<path d="M23.5 9.49995C23.7761 9.49995 24 9.72384 24 9.99995V12C24 12.2761 23.7761 12.5 23.5 12.5H8.5C8.22386 12.5 8 12.2761 8 12V9.99995C8.00004 9.72384 8.22388 9.49995 8.5 9.49995H23.5Z" fill="#FFA9C6"/>
<path d="M9.97266 6.04243L22.1328 7.13374C22.351 7.15332 22.5312 7.31258 22.5771 7.52681L22.7632 8.39546C22.8298 8.70666 22.5927 8.99995 22.2744 8.99995H9.64795C9.34367 8.99995 9.10979 8.73038 9.15283 8.42915L9.43311 6.46968C9.47075 6.20642 9.70778 6.01867 9.97266 6.04243Z" fill="#FFA9C6"/>
</svg>
