<svg width="183" height="48" viewBox="0 0 183 48" fill="none" xmlns="http://www.w3.org/2000/svg">
<g clip-path="url(#clip0_345_2182)">
<path d="M174.865 33.9201C174.732 33.9201 174.572 33.8801 174.385 33.8001C173.799 33.5335 173.639 33.1134 173.905 32.5401L180.005 18.7601C180.272 18.2001 180.692 18.0401 181.265 18.2801C181.865 18.5334 182.032 18.9534 181.765 19.5401L175.645 33.3001C175.485 33.7135 175.225 33.9201 174.865 33.9201ZM177.225 28.6801C176.972 28.7868 176.732 28.8001 176.505 28.7201C176.292 28.6268 176.119 28.4534 175.985 28.2001L171.405 19.5001C171.272 19.2468 171.252 19.0068 171.345 18.7801C171.452 18.5401 171.632 18.3668 171.885 18.2601C172.139 18.1534 172.379 18.1468 172.605 18.2401C172.832 18.3201 173.005 18.4868 173.125 18.7401L177.505 27.4401C177.639 27.6934 177.685 27.9401 177.645 28.1801C177.619 28.4068 177.479 28.5734 177.225 28.6801Z" fill="#296E59"/>
<path d="M163.803 29.2001C162.763 29.2001 161.823 28.9601 160.983 28.4801C160.156 27.9868 159.496 27.3201 159.003 26.4801C158.523 25.6401 158.283 24.6935 158.283 23.6401C158.283 22.5868 158.503 21.6468 158.943 20.8201C159.396 19.9801 160.01 19.3201 160.783 18.8401C161.556 18.3468 162.43 18.1001 163.403 18.1001C164.19 18.1001 164.916 18.2668 165.583 18.6001C166.25 18.9201 166.81 19.3601 167.263 19.9201V14.5201C167.263 14.2135 167.356 13.9668 167.543 13.7801C167.743 13.5935 167.99 13.5001 168.283 13.5001C168.59 13.5001 168.836 13.5935 169.023 13.7801C169.21 13.9668 169.303 14.2135 169.303 14.5201V23.6401C169.303 24.6935 169.056 25.6401 168.563 26.4801C168.083 27.3201 167.43 27.9868 166.603 28.4801C165.776 28.9601 164.843 29.2001 163.803 29.2001ZM163.803 27.4001C164.483 27.4001 165.09 27.2401 165.623 26.9201C166.156 26.5868 166.576 26.1335 166.883 25.5601C167.19 24.9868 167.343 24.3468 167.343 23.6401C167.343 22.9201 167.19 22.2801 166.883 21.7201C166.576 21.1601 166.156 20.7201 165.623 20.4001C165.09 20.0668 164.483 19.9001 163.803 19.9001C163.136 19.9001 162.53 20.0668 161.983 20.4001C161.45 20.7201 161.023 21.1601 160.703 21.7201C160.396 22.2801 160.243 22.9201 160.243 23.6401C160.243 24.3468 160.396 24.9868 160.703 25.5601C161.023 26.1335 161.45 26.5868 161.983 26.9201C162.53 27.2401 163.136 27.4001 163.803 27.4001Z" fill="#296E59"/>
<path d="M149.74 29.2001C148.7 29.2001 147.76 28.9601 146.92 28.4801C146.094 27.9868 145.434 27.3201 144.94 26.4801C144.46 25.6401 144.22 24.6935 144.22 23.6401C144.22 22.5868 144.44 21.6468 144.88 20.8201C145.334 19.9801 145.947 19.3201 146.72 18.8401C147.494 18.3468 148.367 18.1001 149.34 18.1001C150.127 18.1001 150.854 18.2668 151.52 18.6001C152.187 18.9201 152.747 19.3601 153.2 19.9201V14.5201C153.2 14.2135 153.294 13.9668 153.48 13.7801C153.68 13.5935 153.927 13.5001 154.22 13.5001C154.527 13.5001 154.774 13.5935 154.96 13.7801C155.147 13.9668 155.24 14.2135 155.24 14.5201V23.6401C155.24 24.6935 154.994 25.6401 154.5 26.4801C154.02 27.3201 153.367 27.9868 152.54 28.4801C151.714 28.9601 150.78 29.2001 149.74 29.2001ZM149.74 27.4001C150.42 27.4001 151.027 27.2401 151.56 26.9201C152.094 26.5868 152.514 26.1335 152.82 25.5601C153.127 24.9868 153.28 24.3468 153.28 23.6401C153.28 22.9201 153.127 22.2801 152.82 21.7201C152.514 21.1601 152.094 20.7201 151.56 20.4001C151.027 20.0668 150.42 19.9001 149.74 19.9001C149.074 19.9001 148.467 20.0668 147.92 20.4001C147.387 20.7201 146.96 21.1601 146.64 21.7201C146.334 22.2801 146.18 22.9201 146.18 23.6401C146.18 24.3468 146.334 24.9868 146.64 25.5601C146.96 26.1335 147.387 26.5868 147.92 26.9201C148.467 27.2401 149.074 27.4001 149.74 27.4001Z" fill="#296E59"/>
<path d="M135.748 29.2201C134.828 29.2201 134.001 29.0268 133.268 28.6401C132.548 28.2401 131.974 27.6601 131.548 26.9001C131.134 26.1401 130.928 25.2068 130.928 24.1001V19.1801C130.928 18.8868 131.021 18.6468 131.208 18.4601C131.408 18.2601 131.654 18.1601 131.948 18.1601C132.241 18.1601 132.481 18.2601 132.668 18.4601C132.868 18.6468 132.968 18.8868 132.968 19.1801V24.1001C132.968 24.8468 133.108 25.4668 133.388 25.9601C133.668 26.4401 134.048 26.8001 134.528 27.0401C135.008 27.2668 135.548 27.3801 136.148 27.3801C136.721 27.3801 137.228 27.2668 137.668 27.0401C138.121 26.8135 138.481 26.5068 138.748 26.1201C139.014 25.7335 139.148 25.3001 139.148 24.8201H140.408C140.408 25.6468 140.201 26.3935 139.788 27.0601C139.388 27.7268 138.834 28.2535 138.128 28.6401C137.434 29.0268 136.641 29.2201 135.748 29.2201ZM140.168 29.1201C139.874 29.1201 139.628 29.0268 139.428 28.8401C139.241 28.6401 139.148 28.3935 139.148 28.1001V19.1801C139.148 18.8735 139.241 18.6268 139.428 18.4401C139.628 18.2535 139.874 18.1601 140.168 18.1601C140.474 18.1601 140.721 18.2535 140.908 18.4401C141.094 18.6268 141.188 18.8735 141.188 19.1801V28.1001C141.188 28.3935 141.094 28.6401 140.908 28.8401C140.721 29.0268 140.474 29.1201 140.168 29.1201Z" fill="#296E59"/>
<path d="M117.935 29.1201C117.641 29.1201 117.395 29.0201 117.195 28.8201C116.995 28.6201 116.895 28.3735 116.895 28.0801V14.5401C116.895 14.2335 116.995 13.9868 117.195 13.8001C117.395 13.6001 117.641 13.5001 117.935 13.5001H122.715C123.621 13.5001 124.415 13.6801 125.095 14.0401C125.788 14.3868 126.328 14.8735 126.715 15.5001C127.115 16.1268 127.315 16.8468 127.315 17.6601C127.315 18.3135 127.135 18.9068 126.775 19.4401C126.428 19.9601 125.948 20.3735 125.335 20.6801C126.215 20.8935 126.921 21.3135 127.455 21.9401C127.988 22.5668 128.255 23.3868 128.255 24.4001C128.255 25.3201 128.035 26.1335 127.595 26.8401C127.168 27.5468 126.568 28.1068 125.795 28.5201C125.021 28.9201 124.135 29.1201 123.135 29.1201H117.935ZM118.975 27.2001H123.135C123.748 27.2001 124.288 27.0935 124.755 26.8801C125.221 26.6668 125.588 26.3535 125.855 25.9401C126.121 25.5268 126.255 25.0135 126.255 24.4001C126.255 23.8268 126.121 23.3535 125.855 22.9801C125.588 22.6068 125.221 22.3268 124.755 22.1401C124.288 21.9401 123.748 21.8401 123.135 21.8401H118.975V27.2001ZM118.975 19.9201H122.715C123.475 19.9201 124.095 19.7335 124.575 19.3601C125.068 18.9868 125.315 18.4201 125.315 17.6601C125.315 16.9001 125.068 16.3401 124.575 15.9801C124.095 15.6068 123.475 15.4201 122.715 15.4201H118.975V19.9201Z" fill="#296E59"/>
<path d="M102.014 33.9201C101.881 33.9201 101.721 33.8801 101.534 33.8001C100.947 33.5335 100.787 33.1134 101.054 32.5401L107.154 18.7601C107.421 18.2001 107.841 18.0401 108.414 18.2801C109.014 18.5334 109.181 18.9534 108.914 19.5401L102.794 33.3001C102.634 33.7135 102.374 33.9201 102.014 33.9201ZM104.374 28.6801C104.121 28.7868 103.881 28.8001 103.654 28.7201C103.441 28.6268 103.267 28.4534 103.134 28.2001L98.5539 19.5001C98.4206 19.2468 98.4006 19.0068 98.4939 18.7801C98.6006 18.5401 98.7806 18.3668 99.0339 18.2601C99.2872 18.1534 99.5272 18.1468 99.7539 18.2401C99.9806 18.3201 100.154 18.4868 100.274 18.7401L104.654 27.4401C104.787 27.6934 104.834 27.9401 104.794 28.1801C104.767 28.4068 104.627 28.5734 104.374 28.6801Z" fill="#296E59"/>
<path d="M95.6611 29.1401C95.3678 29.1401 95.1211 29.0468 94.9211 28.8601C94.7344 28.6601 94.6411 28.4135 94.6411 28.1201V23.2001C94.6411 22.4401 94.5011 21.8201 94.2211 21.3401C93.9411 20.8601 93.5611 20.5068 93.0811 20.2801C92.6144 20.0401 92.0744 19.9201 91.4611 19.9201C90.9011 19.9201 90.3944 20.0335 89.9411 20.2601C89.4878 20.4868 89.1278 20.7934 88.8611 21.1801C88.5944 21.5534 88.4611 21.9868 88.4611 22.4801H87.2011C87.2011 21.6401 87.4011 20.8934 87.8011 20.2401C88.2144 19.5734 88.7744 19.0468 89.4811 18.6601C90.1878 18.2734 90.9811 18.0801 91.8611 18.0801C92.7811 18.0801 93.6011 18.2801 94.3211 18.6801C95.0544 19.0668 95.6278 19.6401 96.0411 20.4001C96.4678 21.1601 96.6811 22.0935 96.6811 23.2001V28.1201C96.6811 28.4135 96.5811 28.6601 96.3811 28.8601C96.1944 29.0468 95.9544 29.1401 95.6611 29.1401ZM87.4411 29.1401C87.1478 29.1401 86.9011 29.0468 86.7011 28.8601C86.5144 28.6601 86.4211 28.4135 86.4211 28.1201V19.2001C86.4211 18.8934 86.5144 18.6468 86.7011 18.4601C86.9011 18.2734 87.1478 18.1801 87.4411 18.1801C87.7478 18.1801 87.9944 18.2734 88.1811 18.4601C88.3678 18.6468 88.4611 18.8934 88.4611 19.2001V28.1201C88.4611 28.4135 88.3678 28.6601 88.1811 28.8601C87.9944 29.0468 87.7478 29.1401 87.4411 29.1401Z" fill="#296E59"/>
<path d="M82.0283 29.1401C81.735 29.1401 81.4883 29.0468 81.2883 28.8601C81.1016 28.6601 81.0083 28.4135 81.0083 28.1201V23.2001C81.0083 22.4401 80.8683 21.8201 80.5883 21.3401C80.3083 20.8601 79.9283 20.5068 79.4483 20.2801C78.9816 20.0401 78.4416 19.9201 77.8283 19.9201C77.2683 19.9201 76.7616 20.0335 76.3083 20.2601C75.855 20.4868 75.495 20.7934 75.2283 21.1801C74.9616 21.5534 74.8283 21.9868 74.8283 22.4801H73.5683C73.5683 21.6401 73.7683 20.8934 74.1683 20.2401C74.5816 19.5734 75.1416 19.0468 75.8483 18.6601C76.555 18.2734 77.3483 18.0801 78.2283 18.0801C79.1483 18.0801 79.9683 18.2801 80.6883 18.6801C81.4216 19.0668 81.995 19.6401 82.4083 20.4001C82.835 21.1601 83.0483 22.0935 83.0483 23.2001V28.1201C83.0483 28.4135 82.9483 28.6601 82.7483 28.8601C82.5616 29.0468 82.3216 29.1401 82.0283 29.1401ZM73.8083 29.1401C73.515 29.1401 73.2683 29.0468 73.0683 28.8601C72.8816 28.6601 72.7883 28.4135 72.7883 28.1201V19.2001C72.7883 18.8934 72.8816 18.6468 73.0683 18.4601C73.2683 18.2734 73.515 18.1801 73.8083 18.1801C74.115 18.1801 74.3616 18.2734 74.5483 18.4601C74.735 18.6468 74.8283 18.8934 74.8283 19.2001V28.1201C74.8283 28.4135 74.735 28.6601 74.5483 28.8601C74.3616 29.0468 74.115 29.1401 73.8083 29.1401Z" fill="#296E59"/>
<path d="M67.9731 29.1201C67.6798 29.1201 67.4331 29.0268 67.2331 28.8401C67.0465 28.6401 66.9531 28.3934 66.9531 28.1001V19.2001C66.9531 18.8934 67.0465 18.6468 67.2331 18.4601C67.4331 18.2734 67.6798 18.1801 67.9731 18.1801C68.2798 18.1801 68.5265 18.2734 68.7131 18.4601C68.8998 18.6468 68.9931 18.8934 68.9931 19.2001V28.1001C68.9931 28.3934 68.8998 28.6401 68.7131 28.8401C68.5265 29.0268 68.2798 29.1201 67.9731 29.1201ZM67.9731 16.4001C67.6131 16.4001 67.2998 16.2734 67.0331 16.0201C66.7798 15.7534 66.6531 15.4401 66.6531 15.0801C66.6531 14.7201 66.7798 14.4134 67.0331 14.1601C67.2998 13.8934 67.6131 13.7601 67.9731 13.7601C68.3331 13.7601 68.6398 13.8934 68.8931 14.1601C69.1598 14.4134 69.2931 14.7201 69.2931 15.0801C69.2931 15.4401 69.1598 15.7534 68.8931 16.0201C68.6398 16.2734 68.3331 16.4001 67.9731 16.4001Z" fill="#296E59"/>
<path d="M53.54 29.1201C53.2467 29.1201 53 29.0201 52.8 28.8201C52.6 28.6201 52.5 28.3735 52.5 28.0801V14.5401C52.5 14.2335 52.6 13.9868 52.8 13.8001C53 13.6001 53.2467 13.5001 53.54 13.5001H58.32C59.2267 13.5001 60.02 13.6801 60.7 14.0401C61.3933 14.3868 61.9333 14.8735 62.32 15.5001C62.72 16.1268 62.92 16.8468 62.92 17.6601C62.92 18.3135 62.74 18.9068 62.38 19.4401C62.0333 19.9601 61.5533 20.3735 60.94 20.6801C61.82 20.8935 62.5267 21.3135 63.06 21.9401C63.5933 22.5668 63.86 23.3868 63.86 24.4001C63.86 25.3201 63.64 26.1335 63.2 26.8401C62.7733 27.5468 62.1733 28.1068 61.4 28.5201C60.6267 28.9201 59.74 29.1201 58.74 29.1201H53.54ZM54.58 27.2001H58.74C59.3533 27.2001 59.8933 27.0935 60.36 26.8801C60.8267 26.6668 61.1933 26.3535 61.46 25.9401C61.7267 25.5268 61.86 25.0135 61.86 24.4001C61.86 23.8268 61.7267 23.3535 61.46 22.9801C61.1933 22.6068 60.8267 22.3268 60.36 22.1401C59.8933 21.9401 59.3533 21.8401 58.74 21.8401H54.58V27.2001ZM54.58 19.9201H58.32C59.08 19.9201 59.7 19.7335 60.18 19.3601C60.6733 18.9868 60.92 18.4201 60.92 17.6601C60.92 16.9001 60.6733 16.3401 60.18 15.9801C59.7 15.6068 59.08 15.4201 58.32 15.4201H54.58V19.9201Z" fill="#296E59"/>
<path d="M180.343 17.7529C180.712 17.6123 181.1 17.669 181.459 17.8193L181.596 17.8818C181.907 18.0382 182.173 18.2673 182.306 18.6006C182.457 18.9811 182.386 19.3798 182.222 19.7422L182.223 19.7432L176.103 33.5029L176.102 33.502C176 33.7559 175.854 33.987 175.642 34.1562C175.416 34.3359 175.148 34.4199 174.865 34.4199C174.638 34.4199 174.408 34.3538 174.188 34.2598L174.179 34.2559C173.818 34.0918 173.502 33.8408 173.358 33.4629C173.214 33.0827 173.285 32.6875 173.452 32.3291L175.344 28.0547L170.963 19.7334C170.773 19.3735 170.723 18.9772 170.883 18.5898L170.889 18.5771L170.954 18.4463C171.12 18.1513 171.372 17.9332 171.691 17.7988L171.827 17.749C172.138 17.6483 172.459 17.647 172.771 17.7686C172.772 17.769 172.774 17.7701 172.775 17.7705C172.782 17.7731 172.789 17.7746 172.796 17.7773L172.795 17.7783C173.152 17.9117 173.408 18.1761 173.571 18.5156L176.762 24.8506L179.548 18.5576L179.554 18.5449L179.621 18.416C179.786 18.1213 180.019 17.8761 180.343 17.7529ZM181.265 18.2801C180.692 18.0401 180.272 18.2001 180.005 18.7601L176.791 26.0205L173.125 18.7401C173.02 18.5184 172.874 18.3633 172.688 18.2744L172.605 18.2401C172.379 18.1468 172.139 18.1534 171.885 18.2601L171.794 18.3037C171.588 18.4116 171.439 18.5702 171.345 18.7801L171.315 18.8662C171.259 19.0673 171.289 19.2787 171.405 19.5001L175.898 28.0361L173.905 32.5401C173.639 33.1134 173.799 33.5335 174.385 33.8001C174.526 33.8601 174.651 33.8981 174.761 33.9131L174.865 33.9201C175.225 33.9201 175.485 33.7135 175.645 33.3001L181.765 19.5401C182.032 18.9534 181.865 18.5334 181.265 18.2801Z" fill="#296E59"/>
<path d="M169.303 14.5201C169.303 14.2517 169.232 14.029 169.089 13.8525L169.023 13.7801C168.86 13.6169 168.651 13.5254 168.396 13.5049L168.283 13.5001C167.99 13.5001 167.743 13.5935 167.543 13.7801L167.478 13.8525C167.334 14.0291 167.263 14.2516 167.263 14.5201V19.9201C166.866 19.4302 166.388 19.0318 165.828 18.7256L165.583 18.6001C165 18.3085 164.37 18.1449 163.695 18.1084L163.403 18.1001C162.43 18.1001 161.556 18.3468 160.783 18.8401L160.5 19.0283C159.858 19.4877 159.34 20.0852 158.943 20.8201L158.788 21.1357C158.451 21.8837 158.283 22.7188 158.283 23.6401L158.294 24.0303C158.346 24.9286 158.583 25.7452 159.003 26.4801C159.496 27.3201 160.156 27.9868 160.983 28.4801C161.718 28.9 162.53 29.136 163.418 29.1885L163.803 29.2001C164.713 29.2001 165.541 29.016 166.288 28.6484L166.603 28.4801C167.43 27.9868 168.083 27.3201 168.563 26.4801C168.995 25.7452 169.237 24.9285 169.291 24.0303L169.303 23.6401V14.5201ZM166.843 23.6396C166.843 23.0735 166.738 22.5776 166.536 22.1426L166.444 21.96C166.179 21.4758 165.82 21.1021 165.365 20.8291L165.358 20.8242C164.911 20.5446 164.397 20.4004 163.803 20.4004C163.224 20.4004 162.708 20.5437 162.243 20.8271L162.24 20.8291C161.786 21.1018 161.419 21.4746 161.141 21.959L161.142 21.96C160.88 22.4372 160.743 22.9929 160.743 23.6396C160.743 24.268 160.878 24.8238 161.14 25.3164L161.249 25.5C161.512 25.9128 161.842 26.241 162.24 26.4912C162.705 26.7622 163.222 26.9004 163.803 26.9004L163.803 27.4001L163.556 27.3926C163.067 27.3626 162.612 27.2423 162.19 27.0322L161.983 26.9201C161.45 26.5868 161.023 26.1335 160.703 25.5601C160.435 25.0585 160.284 24.506 160.25 23.9023L160.243 23.6401C160.243 22.9201 160.396 22.2801 160.703 21.7201C160.983 21.2302 161.345 20.8316 161.788 20.5254L161.983 20.4001C162.53 20.0668 163.136 19.9001 163.803 19.9001L164.055 19.9082C164.634 19.9447 165.156 20.1085 165.623 20.4001C166.156 20.7201 166.576 21.1601 166.883 21.7201C167.19 22.2801 167.343 22.9201 167.343 23.6401L167.336 23.9023C167.302 24.506 167.151 25.0585 166.883 25.5601L166.763 25.7695C166.47 26.2449 166.09 26.6285 165.623 26.9201L165.42 27.0322C164.937 27.2774 164.398 27.4001 163.803 27.4001L163.803 26.9004C164.401 26.9004 164.917 26.7602 165.365 26.4912C165.818 26.2062 166.177 25.8206 166.442 25.3242L166.535 25.1357C166.738 24.689 166.843 24.1924 166.843 23.6396ZM169.803 23.6396C169.803 24.7724 169.536 25.8059 168.996 26.7275L168.997 26.7285C168.475 27.6427 167.76 28.3716 166.859 28.9092L166.854 28.9121C165.945 29.4402 164.923 29.7002 163.803 29.7002C162.683 29.7002 161.656 29.4403 160.735 28.9141L160.727 28.9092C159.827 28.3723 159.108 27.6448 158.572 26.7334L158.568 26.7285C158.041 25.8064 157.783 24.772 157.783 23.6396C157.783 22.5149 158.019 21.4925 158.502 20.585L158.503 20.583L158.696 20.249C159.099 19.5997 159.603 19.0561 160.208 18.623L160.52 18.415C161.377 17.8696 162.343 17.6006 163.403 17.6006C164.26 17.6006 165.061 17.782 165.799 18.1494C166.145 18.3158 166.467 18.5135 166.763 18.7402V14.5205C166.763 14.1044 166.894 13.7224 167.189 13.4268L167.195 13.4209L167.202 13.415C167.502 13.1354 167.873 13 168.283 13C168.699 13 169.081 13.1312 169.377 13.4268C169.672 13.7224 169.803 14.1046 169.803 14.5205V23.6396Z" fill="#296E59"/>
<path d="M155.24 14.5201C155.24 14.2517 155.169 14.029 155.026 13.8525L154.96 13.7801C154.797 13.6169 154.588 13.5254 154.333 13.5049L154.22 13.5001C153.927 13.5001 153.68 13.5935 153.48 13.7801L153.415 13.8525C153.272 14.0291 153.2 14.2516 153.2 14.5201V19.9201C152.804 19.4302 152.326 19.0318 151.766 18.7256L151.52 18.6001C150.937 18.3085 150.308 18.1449 149.633 18.1084L149.34 18.1001C148.367 18.1001 147.494 18.3468 146.72 18.8401L146.438 19.0283C145.796 19.4877 145.277 20.0852 144.88 20.8201L144.726 21.1357C144.389 21.8837 144.221 22.7188 144.22 23.6401L144.231 24.0303C144.284 24.9286 144.52 25.7452 144.94 26.4801C145.434 27.3201 146.094 27.9868 146.92 28.4801C147.655 28.9 148.467 29.136 149.355 29.1885L149.74 29.2001C150.651 29.2001 151.479 29.016 152.226 28.6484L152.54 28.4801C153.367 27.9868 154.02 27.3201 154.5 26.4801C154.932 25.7452 155.175 24.9285 155.229 24.0303L155.24 23.6401V14.5201ZM152.78 23.6396C152.78 23.0735 152.675 22.5776 152.474 22.1426L152.382 21.96C152.117 21.4758 151.758 21.1021 151.303 20.8291L151.296 20.8242C150.848 20.5446 150.334 20.4004 149.74 20.4004C149.162 20.4004 148.646 20.5437 148.181 20.8271L148.178 20.8291C147.723 21.1018 147.357 21.4746 147.078 21.959L147.079 21.96C146.818 22.4372 146.681 22.9929 146.681 23.6396C146.681 24.268 146.815 24.8238 147.077 25.3164L147.187 25.5C147.45 25.9128 147.78 26.241 148.178 26.4912C148.642 26.7622 149.16 26.9004 149.74 26.9004L149.74 27.4001L149.493 27.3926C149.004 27.3626 148.549 27.2423 148.128 27.0322L147.92 26.9201C147.387 26.5868 146.96 26.1335 146.64 25.5601C146.372 25.0585 146.221 24.506 146.188 23.9023L146.18 23.6401C146.18 22.9201 146.334 22.2801 146.64 21.7201C146.92 21.2302 147.282 20.8316 147.726 20.5254L147.92 20.4001C148.467 20.0668 149.074 19.9001 149.74 19.9001L149.992 19.9082C150.571 19.9447 151.094 20.1085 151.56 20.4001C152.094 20.7201 152.514 21.1601 152.82 21.7201C153.127 22.2801 153.28 22.9201 153.28 23.6401L153.273 23.9023C153.24 24.506 153.089 25.0585 152.82 25.5601L152.7 25.7695C152.407 26.2449 152.027 26.6285 151.56 26.9201L151.357 27.0322C150.875 27.2774 150.336 27.4001 149.74 27.4001L149.74 26.9004C150.338 26.9004 150.854 26.7602 151.303 26.4912C151.756 26.2062 152.114 25.8206 152.38 25.3242L152.473 25.1357C152.676 24.689 152.78 24.1924 152.78 23.6396ZM155.74 23.6396C155.74 24.7724 155.474 25.8059 154.934 26.7275L154.935 26.7285C154.412 27.6427 153.698 28.3716 152.797 28.9092L152.792 28.9121C151.882 29.4402 150.86 29.7002 149.74 29.7002C148.62 29.7002 147.594 29.4403 146.673 28.9141L146.664 28.9092C145.765 28.3723 145.045 27.6448 144.51 26.7334L144.506 26.7285C143.979 25.8064 143.721 24.772 143.721 23.6396C143.721 22.5149 143.956 21.4925 144.439 20.585L144.44 20.583L144.634 20.249C145.037 19.5997 145.541 19.0561 146.146 18.623L146.457 18.415C147.314 17.8696 148.281 17.6006 149.341 17.6006C150.198 17.6006 150.999 17.782 151.736 18.1494C152.083 18.3158 152.405 18.5135 152.7 18.7402V14.5205C152.7 14.1044 152.831 13.7224 153.127 13.4268L153.133 13.4209L153.14 13.415C153.439 13.1354 153.811 13 154.221 13C154.637 13 155.019 13.1312 155.314 13.4268C155.61 13.7224 155.74 14.1046 155.74 14.5205V23.6396Z" fill="#296E59"/>
<path d="M132.968 24.1001V19.1801C132.968 18.9236 132.891 18.7071 132.738 18.5322L132.668 18.4601C132.504 18.285 132.3 18.1868 132.055 18.165L131.948 18.1601C131.654 18.1601 131.408 18.2601 131.208 18.4601L131.142 18.5322C130.999 18.7071 130.928 18.9236 130.928 19.1801V24.1001L130.938 24.5068C130.983 25.4373 131.186 26.2351 131.548 26.9001C131.974 27.6601 132.548 28.2401 133.268 28.6401C133.909 28.9785 134.623 29.1687 135.407 29.2109L135.748 29.2201C136.641 29.2201 137.434 29.0268 138.128 28.6401C138.514 28.4287 138.853 28.1731 139.147 27.8779L139.148 28.1001C139.148 28.3935 139.241 28.6401 139.428 28.8401C139.603 29.0034 139.813 29.0958 140.06 29.1162L140.168 29.1201C140.436 29.1201 140.659 29.0483 140.835 28.9053L140.908 28.8401C141.071 28.6651 141.163 28.4544 141.184 28.208L141.188 28.1001V19.1801C141.188 18.912 141.116 18.6891 140.974 18.5127L140.908 18.4401C140.744 18.2769 140.535 18.1845 140.28 18.1641L140.168 18.1601C139.874 18.1601 139.628 18.2535 139.428 18.4401C139.241 18.6268 139.148 18.8735 139.148 19.1801V24.8201L139.142 24.998C139.112 25.4077 138.981 25.7819 138.748 26.1201C138.481 26.5068 138.121 26.8135 137.668 27.0401C137.228 27.2668 136.721 27.3801 136.148 27.3801L136.147 26.8799C136.654 26.8799 137.08 26.7804 137.438 26.5957L137.444 26.5928L137.584 26.5176C137.9 26.3363 138.148 26.1087 138.336 25.8359L138.409 25.7217C138.545 25.4895 138.623 25.2379 138.643 24.9609L138.647 24.8203V19.1797C138.648 18.7638 138.779 18.3824 139.074 18.0869L139.08 18.0801L139.087 18.0742C139.386 17.7948 139.758 17.6602 140.168 17.6602C140.584 17.6602 140.965 17.7914 141.261 18.0869C141.556 18.3825 141.687 18.7638 141.688 19.1797V28.1006C141.687 28.5104 141.553 28.8821 141.273 29.1816L141.268 29.1875L141.261 29.1934C140.965 29.4889 140.584 29.6201 140.168 29.6201C139.758 29.6201 139.386 29.4855 139.087 29.2061L139.074 29.1943L139.062 29.1816C138.955 29.0669 138.869 28.9415 138.804 28.8076C138.665 28.9024 138.521 28.9934 138.37 29.0762L138.371 29.0771C137.595 29.5102 136.716 29.7197 135.748 29.7197C134.756 29.7197 133.847 29.5106 133.034 29.082L133.024 29.0771C132.219 28.6295 131.581 27.9803 131.111 27.1445L131.108 27.1387C130.646 26.2879 130.428 25.2677 130.428 24.1006V19.1797C130.428 18.7701 130.563 18.3976 130.854 18.1064L130.97 18.002C131.247 17.7743 131.58 17.6602 131.947 17.6602C132.356 17.6602 132.723 17.8027 133.008 18.0947L133.033 18.1191C133.326 18.4045 133.468 18.7704 133.468 19.1797V24.1006C133.468 24.784 133.595 25.3108 133.819 25.708L133.91 25.8525C134.129 26.1761 134.406 26.4184 134.744 26.5889C135.148 26.7793 135.613 26.8799 136.147 26.8799L136.148 27.3801L135.926 27.375C135.487 27.3538 135.082 27.2688 134.711 27.1201L134.528 27.0401C134.048 26.8001 133.668 26.4401 133.388 25.9601C133.143 25.5284 133.005 24.9997 132.975 24.374L132.968 24.1001Z" fill="#296E59"/>
<path d="M128.255 24.4001C128.255 23.4501 128.021 22.6697 127.552 22.0596L127.455 21.9401C126.921 21.3135 126.215 20.8935 125.335 20.6801C125.948 20.3735 126.428 19.9601 126.775 19.4401C127.09 18.9735 127.266 18.4609 127.306 17.9023L127.315 17.6601C127.315 16.9484 127.162 16.308 126.855 15.7393L126.715 15.5001C126.376 14.9519 125.921 14.5107 125.348 14.1768L125.095 14.0401C124.499 13.7251 123.818 13.5481 123.049 13.5088L122.715 13.5001L122.715 13C123.684 13 124.556 13.1923 125.317 13.5928C126.087 13.9776 126.698 14.5245 127.136 15.2314L127.296 15.5039C127.644 16.1509 127.814 16.8732 127.814 17.6602C127.814 18.4106 127.605 19.1001 127.189 19.7168L127.19 19.7178C126.982 20.0296 126.732 20.3042 126.445 20.5459C126.983 20.8055 127.448 21.1616 127.835 21.6162L127.949 21.7568C128.498 22.4715 128.755 23.3659 128.755 24.4004C128.755 25.401 128.513 26.305 128.021 27.0977L128.022 27.0986C127.546 27.8871 126.878 28.508 126.03 28.9609L126.024 28.9639C125.17 29.4057 124.203 29.6201 123.135 29.6201H117.935C117.567 29.6201 117.233 29.5062 116.956 29.2783L116.841 29.1738C116.543 28.8762 116.395 28.5005 116.395 28.0801V14.54C116.395 14.119 116.535 13.738 116.841 13.4463L116.956 13.3418C117.233 13.114 117.567 13 117.935 13L117.935 13.5001L117.827 13.5049C117.581 13.5267 117.37 13.6251 117.195 13.8001C116.995 13.9868 116.895 14.2335 116.895 14.5401V28.0801L116.899 28.1875C116.921 28.4341 117.019 28.645 117.195 28.8201C117.37 28.9952 117.581 29.0934 117.827 29.1152L117.935 29.1201H123.135L123.504 29.1104C124.233 29.0729 124.898 28.9236 125.499 28.6611L125.795 28.5201C126.568 28.1068 127.168 27.5468 127.595 26.8401C127.979 26.2219 128.196 25.5217 128.244 24.7402L128.255 24.4001ZM125.755 24.4004C125.755 23.9667 125.667 23.6331 125.516 23.376L125.447 23.2705C125.241 22.9826 124.955 22.7591 124.568 22.6045L124.558 22.5996C124.165 22.4312 123.694 22.3399 123.135 22.3398H119.475V26.7002H123.135L123.135 27.2001H118.975V21.8401H123.135C123.748 21.8401 124.288 21.9401 124.755 22.1401C125.221 22.3268 125.588 22.6068 125.855 22.9801C126.121 23.3535 126.255 23.8268 126.255 24.4001L126.248 24.625C126.219 25.14 126.088 25.5784 125.855 25.9401L125.75 26.0908C125.495 26.4304 125.163 26.6935 124.755 26.8801L124.576 26.9551C124.152 27.1184 123.671 27.2001 123.135 27.2001L123.135 26.7002C123.69 26.7002 124.157 26.604 124.547 26.4258L124.687 26.3564C125.002 26.1863 125.249 25.9573 125.435 25.6689L125.507 25.5459C125.665 25.2487 125.755 24.8733 125.755 24.4004ZM124.814 17.6602C124.814 17.0164 124.613 16.6266 124.28 16.3838L124.273 16.3799L124.268 16.375C123.895 16.0855 123.392 15.92 122.715 15.9199H119.475V19.4199H122.715L122.715 19.9201H118.975V15.4201H122.715C123.475 15.4201 124.095 15.6068 124.575 15.9801C125.068 16.3401 125.315 16.9001 125.315 17.6601L125.303 17.9365C125.249 18.559 125.006 19.0335 124.575 19.3601C124.095 19.7335 123.475 19.9201 122.715 19.9201L122.715 19.4199C123.392 19.4199 123.895 19.2552 124.268 18.9658L124.272 18.9609L124.394 18.8584C124.66 18.6006 124.814 18.2231 124.814 17.6602ZM122.715 13L122.715 13.5001H117.935L117.935 13H122.715Z" fill="#296E59"/>
<path d="M107.491 17.7529C107.861 17.6123 108.248 17.669 108.607 17.8193L108.744 17.8818C109.056 18.0382 109.322 18.2673 109.454 18.6006C109.605 18.9811 109.534 19.3798 109.37 19.7422L109.371 19.7432L103.251 33.5029L103.25 33.502C103.149 33.7559 103.003 33.987 102.79 34.1562C102.564 34.3359 102.297 34.4199 102.014 34.4199C101.787 34.4199 101.556 34.3538 101.337 34.2598L101.327 34.2559C100.966 34.0918 100.651 33.8408 100.507 33.4629C100.362 33.0827 100.434 32.6875 100.601 32.3291L102.492 28.0547L98.1113 19.7334C97.9219 19.3735 97.8718 18.9772 98.0312 18.5898L98.0371 18.5771L98.1025 18.4463C98.2684 18.1513 98.5208 17.9332 98.8398 17.7988L98.9756 17.749C99.286 17.6483 99.607 17.647 99.9189 17.7686C99.9202 17.769 99.9226 17.7701 99.9238 17.7705C99.9305 17.7731 99.9377 17.7746 99.9443 17.7773L99.9434 17.7783C100.3 17.9117 100.556 18.1761 100.72 18.5156L103.91 24.8506L106.696 18.5576L106.702 18.5449L106.77 18.416C106.935 18.1213 107.168 17.8761 107.491 17.7529ZM108.414 18.2801C107.841 18.0401 107.421 18.2001 107.154 18.7601L103.939 26.0205L100.274 18.7401C100.169 18.5184 100.023 18.3633 99.8359 18.2744L99.7539 18.2401C99.5272 18.1468 99.2872 18.1534 99.0339 18.2601L98.9424 18.3037C98.7368 18.4116 98.5872 18.5702 98.4939 18.7801L98.4639 18.8662C98.4072 19.0673 98.4374 19.2787 98.5539 19.5001L103.047 28.0361L101.054 32.5401C100.787 33.1134 100.947 33.5335 101.534 33.8001C101.674 33.8601 101.799 33.8981 101.909 33.9131L102.014 33.9201C102.374 33.9201 102.634 33.7135 102.794 33.3001L108.914 19.5401C109.181 18.9534 109.014 18.5334 108.414 18.2801Z" fill="#296E59"/>
<path d="M94.1406 28.1201V23.2002C94.1406 22.5852 94.0418 22.1062 93.8682 21.7412L93.7891 21.5918C93.5575 21.1949 93.2513 20.9138 92.8672 20.7324L92.8604 20.7285L92.8525 20.7246C92.4677 20.5267 92.0082 20.4199 91.4609 20.4199C91.0318 20.4199 90.6498 20.4955 90.3086 20.6406L90.165 20.707C89.781 20.899 89.4875 21.1521 89.2725 21.4639L89.2676 21.4707C89.0662 21.7527 88.9609 22.0831 88.9609 22.4805V28.1201C88.9609 28.53 88.8264 28.9015 88.5469 29.2012L88.541 29.208L88.5342 29.2139C88.2387 29.5092 87.8572 29.6396 87.4414 29.6396C87.0315 29.6396 86.66 29.5051 86.3604 29.2256L86.3477 29.2139L86.3359 29.2012C86.0563 28.9015 85.9209 28.5301 85.9209 28.1201V19.2002C85.9209 18.7841 86.052 18.4021 86.3477 18.1064L86.3535 18.1006L86.3604 18.0947C86.66 17.8151 87.0315 17.6797 87.4414 17.6797C87.8572 17.6798 88.2387 17.8111 88.5342 18.1064C88.6495 18.2218 88.7395 18.3508 88.8066 18.4893C88.946 18.3947 89.0901 18.3044 89.2412 18.2217L89.54 18.0703C90.2483 17.7414 91.0248 17.5801 91.8613 17.5801C92.852 17.5801 93.7536 17.7961 94.5537 18.2383C95.376 18.6719 96.0186 19.3158 96.4766 20.1553C96.955 21.0076 97.1807 22.0305 97.1807 23.2002V28.1201C97.1807 28.4881 97.0669 28.8216 96.8389 29.0986L96.7344 29.2139C96.4431 29.505 96.0708 29.6396 95.6611 29.6396C95.2512 29.6396 94.8797 29.5052 94.5801 29.2256L94.5674 29.2139L94.5557 29.2012C94.276 28.9015 94.1406 28.5301 94.1406 28.1201ZM86.4211 28.1201L86.4258 28.2275C86.4461 28.4742 86.5377 28.685 86.7011 28.8601C86.876 29.0233 87.0867 29.1153 87.333 29.1357L87.4411 29.1401C87.7093 29.1401 87.932 29.0687 88.1084 28.9258L88.1811 28.8601C88.3445 28.685 88.4367 28.4742 88.457 28.2275L88.4611 28.1201V22.4801L88.4678 22.2979C88.497 21.8794 88.6278 21.5068 88.8611 21.1801C89.0944 20.842 89.3993 20.5644 89.7754 20.3486L89.9411 20.2601C90.3944 20.0335 90.9011 19.9201 91.4611 19.9201L91.6875 19.9258C92.2082 19.952 92.6727 20.0701 93.0811 20.2801C93.5611 20.5068 93.9411 20.8601 94.2211 21.3401C94.5011 21.8201 94.6411 22.4401 94.6411 23.2001V28.1201L94.6455 28.2275C94.6659 28.4742 94.7577 28.685 94.9211 28.8601C95.0962 29.0235 95.3071 29.1154 95.5537 29.1357L95.6611 29.1401C95.9177 29.1401 96.1336 29.0687 96.3086 28.9258L96.3811 28.8601C96.5562 28.685 96.655 28.4742 96.6768 28.2275L96.6811 28.1201V23.2001C96.6811 22.0935 96.4678 21.1601 96.0411 20.4001C95.6795 19.7352 95.1954 19.2131 94.5889 18.834L94.3211 18.6801C93.691 18.3301 92.9844 18.1336 92.2012 18.0898L91.8611 18.0801C90.9811 18.0801 90.1878 18.2734 89.4811 18.6601L89.2227 18.8115C88.9427 18.9877 88.6897 19.1899 88.4609 19.415L88.4611 19.2001C88.4611 18.932 88.3898 18.7096 88.2471 18.5332L88.1811 18.4601C88.0179 18.2971 87.8086 18.205 87.5537 18.1846L87.4411 18.1801C87.1478 18.1801 86.9011 18.2734 86.7011 18.4601L86.6357 18.5332C86.4928 18.7097 86.4211 18.9318 86.4211 19.2001V28.1201Z" fill="#296E59"/>
<path d="M80.5078 28.1201V23.2002C80.5078 22.5852 80.409 22.1062 80.2354 21.7412L80.1562 21.5918C79.9246 21.1949 79.6185 20.9138 79.2344 20.7324L79.2275 20.7285L79.2197 20.7246C78.8348 20.5267 78.3753 20.4199 77.8281 20.4199C77.399 20.4199 77.017 20.4955 76.6758 20.6406L76.5322 20.707C76.1482 20.899 75.8547 21.1521 75.6396 21.4639L75.6348 21.4707C75.4334 21.7527 75.3281 22.0831 75.3281 22.4805V28.1201C75.3281 28.53 75.1936 28.9015 74.9141 29.2012L74.9082 29.208L74.9014 29.2139C74.6058 29.5092 74.2244 29.6396 73.8086 29.6396C73.3987 29.6396 73.0272 29.5051 72.7275 29.2256L72.7148 29.2139L72.7031 29.2012C72.4234 28.9015 72.2881 28.5301 72.2881 28.1201V19.2002C72.2881 18.7841 72.4192 18.4021 72.7148 18.1064L72.7207 18.1006L72.7275 18.0947C73.0272 17.8151 73.3987 17.6797 73.8086 17.6797C74.2244 17.6798 74.6058 17.8111 74.9014 18.1064C75.0167 18.2218 75.1066 18.3508 75.1738 18.4893C75.3132 18.3947 75.4573 18.3044 75.6084 18.2217L75.9072 18.0703C76.6154 17.7414 77.392 17.5801 78.2285 17.5801C79.2192 17.5801 80.1207 17.7961 80.9209 18.2383C81.7431 18.6719 82.3858 19.3158 82.8438 20.1553C83.3222 21.0076 83.5479 22.0305 83.5479 23.2002V28.1201C83.5479 28.4881 83.4341 28.8216 83.2061 29.0986L83.1016 29.2139C82.8103 29.505 82.438 29.6396 82.0283 29.6396C81.6184 29.6396 81.2469 29.5052 80.9473 29.2256L80.9346 29.2139L80.9229 29.2012C80.6432 28.9015 80.5078 28.5301 80.5078 28.1201ZM72.7883 28.1201L72.793 28.2275C72.8133 28.4742 72.9049 28.685 73.0683 28.8601C73.2432 29.0233 73.4539 29.1153 73.7002 29.1357L73.8083 29.1401C74.0765 29.1401 74.2992 29.0687 74.4756 28.9258L74.5483 28.8601C74.7117 28.685 74.8039 28.4742 74.8242 28.2275L74.8283 28.1201V22.4801L74.835 22.2979C74.8641 21.8794 74.995 21.5068 75.2283 21.1801C75.4616 20.842 75.7665 20.5644 76.1426 20.3486L76.3083 20.2601C76.7616 20.0335 77.2683 19.9201 77.8283 19.9201L78.0547 19.9258C78.5754 19.952 79.0399 20.0701 79.4483 20.2801C79.9283 20.5068 80.3083 20.8601 80.5883 21.3401C80.8683 21.8201 81.0083 22.4401 81.0083 23.2001V28.1201L81.0127 28.2275C81.033 28.4742 81.1249 28.685 81.2883 28.8601C81.4634 29.0235 81.6743 29.1154 81.9209 29.1357L82.0283 29.1401C82.2849 29.1401 82.5008 29.0687 82.6758 28.9258L82.7483 28.8601C82.9234 28.685 83.0221 28.4742 83.0439 28.2275L83.0483 28.1201V23.2001C83.0483 22.0935 82.835 21.1601 82.4083 20.4001C82.0467 19.7352 81.5626 19.2131 80.9561 18.834L80.6883 18.6801C80.0582 18.3301 79.3516 18.1336 78.5684 18.0898L78.2283 18.0801C77.3483 18.0801 76.555 18.2734 75.8483 18.6601L75.5898 18.8115C75.3099 18.9877 75.0569 19.1899 74.8281 19.415L74.8283 19.2001C74.8283 18.932 74.757 18.7096 74.6143 18.5332L74.5483 18.4601C74.3851 18.2971 74.1758 18.205 73.9209 18.1846L73.8083 18.1801C73.515 18.1801 73.2683 18.2734 73.0683 18.4601L73.0029 18.5332C72.86 18.7097 72.7883 18.9318 72.7883 19.2001V28.1201Z" fill="#296E59"/>
<path d="M68.9931 19.2001C68.9931 18.9318 68.9213 18.7097 68.7783 18.5332L68.7131 18.4601C68.5497 18.2968 68.3402 18.2049 68.085 18.1846L67.9731 18.1801C67.6798 18.1801 67.4331 18.2734 67.2331 18.4601L67.168 18.5332C67.025 18.7097 66.9531 18.9318 66.9531 19.2001V28.1001L66.957 28.208C66.9775 28.4544 67.0698 28.6651 67.2331 28.8401C67.4081 29.0034 67.6188 29.0958 67.8652 29.1162L67.9731 29.1201C68.2417 29.1201 68.4641 29.0484 68.6406 28.9053L68.7131 28.8401C68.8764 28.6651 68.9678 28.4544 68.9883 28.208L68.9931 28.1001V19.2001ZM69.2931 15.0801C69.2931 14.7201 69.1598 14.4134 68.8931 14.1601C68.6714 13.9267 68.4089 13.7957 68.1055 13.7666L67.9731 13.7601C67.6131 13.7601 67.2998 13.8934 67.0331 14.1601L66.9443 14.2578C66.7504 14.4911 66.6531 14.7651 66.6531 15.0801L66.6592 15.2129C66.6869 15.5177 66.8114 15.7868 67.0331 16.0201C67.2663 16.2415 67.5353 16.3668 67.8398 16.3945L67.9731 16.4001C68.2882 16.4001 68.5626 16.3034 68.7959 16.1094L68.8931 16.0201C69.1265 15.7868 69.258 15.5177 69.2871 15.2129L69.2931 15.0801ZM69.4932 28.1006C69.4931 28.5104 69.3587 28.8821 69.0791 29.1816L69.0732 29.1875L69.0664 29.1934C68.7708 29.489 68.3888 29.6201 67.9727 29.6201C67.5629 29.62 67.1911 29.4856 66.8916 29.2061L66.8789 29.1943L66.8672 29.1816C66.5876 28.8821 66.4532 28.5104 66.4531 28.1006V19.2002C66.4531 18.7841 66.5842 18.4021 66.8799 18.1064L66.8916 18.0947C67.1911 17.8152 67.5629 17.6798 67.9727 17.6797C68.3887 17.6797 68.7708 17.8109 69.0664 18.1064C69.3621 18.4021 69.4932 18.7841 69.4932 19.2002V28.1006ZM69.793 15.0801C69.793 15.5171 69.6467 15.9074 69.3721 16.2363L69.2471 16.374C68.8995 16.7216 68.4645 16.9004 67.9727 16.9004C67.4816 16.9003 67.0457 16.7222 66.6885 16.3828L66.6797 16.374L66.6709 16.3643C66.3314 16.0069 66.1533 15.5713 66.1533 15.0801C66.1533 14.5882 66.3321 14.1542 66.6797 13.8066L66.8164 13.6807C67.1452 13.4061 67.5358 13.2599 67.9727 13.2598C68.473 13.2598 68.9105 13.4519 69.2559 13.8154C69.6078 14.1581 69.793 14.588 69.793 15.0801Z" fill="#296E59"/>
<path d="M63.86 24.4001C63.86 23.4501 63.626 22.6697 63.1572 22.0596L63.06 21.9401C62.5267 21.3135 61.82 20.8935 60.94 20.6801C61.5533 20.3735 62.0333 19.9601 62.38 19.4401C62.695 18.9735 62.8717 18.4609 62.9111 17.9023L62.92 17.6601C62.92 16.9484 62.7672 16.308 62.4609 15.7393L62.32 15.5001C61.9817 14.9519 61.5261 14.5107 60.9531 14.1768L60.7 14.0401C60.1049 13.7251 59.423 13.5481 58.6543 13.5088L58.32 13.5001L58.3203 13C59.2892 13 60.1616 13.1923 60.9229 13.5928C61.6924 13.9776 62.3034 14.5245 62.7412 15.2314L62.9014 15.5039C63.2495 16.1509 63.4199 16.8732 63.4199 17.6602C63.4199 18.4106 63.2105 19.1001 62.7949 19.7168L62.7959 19.7178C62.5879 20.0296 62.3377 20.3042 62.0508 20.5459C62.5882 20.8055 63.0535 21.1616 63.4404 21.6162L63.5547 21.7568C64.1032 22.4715 64.3604 23.3659 64.3604 24.4004C64.3603 25.401 64.1189 26.305 63.627 27.0977L63.6279 27.0986C63.1518 27.8871 62.4832 28.508 61.6357 28.9609L61.6299 28.9639C60.7757 29.4057 59.8081 29.6201 58.7402 29.6201H53.54C53.1721 29.6201 52.8385 29.5062 52.5615 29.2783L52.4463 29.1738C52.1487 28.8762 52 28.5005 52 28.0801V14.54C52 14.119 52.1408 13.738 52.4463 13.4463L52.5615 13.3418C52.8385 13.114 53.1721 13 53.54 13L53.54 13.5001L53.4326 13.5049C53.186 13.5267 52.9751 13.6251 52.8 13.8001C52.6 13.9868 52.5 14.2335 52.5 14.5401V28.0801L52.5049 28.1875C52.5267 28.4341 52.6249 28.645 52.8 28.8201C52.9751 28.9952 53.186 29.0934 53.4326 29.1152L53.54 29.1201H58.74L59.1094 29.1104C59.8381 29.0729 60.5032 28.9236 61.1045 28.6611L61.4 28.5201C62.1733 28.1068 62.7733 27.5468 63.2 26.8401C63.5849 26.2219 63.8015 25.5217 63.8496 24.7402L63.86 24.4001ZM61.3604 24.4004C61.3604 23.9667 61.2721 23.6331 61.1211 23.376L61.0527 23.2705C60.847 22.9826 60.5603 22.7591 60.1738 22.6045L60.1631 22.5996C59.7702 22.4312 59.2995 22.3399 58.7402 22.3398H55.0801V26.7002H58.7402L58.74 27.2001H54.58V21.8401H58.74C59.3533 21.8401 59.8933 21.9401 60.36 22.1401C60.8267 22.3268 61.1933 22.6068 61.46 22.9801C61.7267 23.3535 61.86 23.8268 61.86 24.4001L61.8535 24.625C61.8244 25.14 61.6934 25.5784 61.46 25.9401L61.3555 26.0908C61.1004 26.4304 60.7681 26.6935 60.36 26.8801L60.1816 26.9551C59.7573 27.1184 59.2766 27.2001 58.74 27.2001L58.7402 26.7002C59.2955 26.7002 59.7625 26.604 60.1523 26.4258L60.292 26.3564C60.6077 26.1863 60.854 25.9573 61.04 25.6689L61.1123 25.5459C61.2705 25.2487 61.3603 24.8733 61.3604 24.4004ZM60.4199 17.6602C60.4199 17.0164 60.2184 16.6266 59.8857 16.3838L59.8789 16.3799L59.873 16.375C59.5009 16.0855 58.9973 15.92 58.3203 15.9199H55.0801V19.4199H58.3203L58.32 19.9201H54.58V15.4201H58.32C59.08 15.4201 59.7 15.6068 60.18 15.9801C60.6733 16.3401 60.92 16.9001 60.92 17.6601L60.9082 17.9365C60.8542 18.559 60.6116 19.0335 60.18 19.3601C59.7 19.7335 59.08 19.9201 58.32 19.9201L58.3203 19.4199C58.9972 19.4199 59.5009 19.2552 59.873 18.9658L59.8779 18.9609L59.999 18.8584C60.2654 18.6006 60.4199 18.2231 60.4199 17.6602ZM58.3203 13L58.32 13.5001H53.54L53.54 13H58.3203Z" fill="#296E59"/>
<path d="M20.7723 13.4691C20.7723 13.4691 18.2468 15.5325 17.1793 20.3053C16.1717 25.6456 12.4211 29.629 9.71001 31.0298C8.95791 26.4792 11.3912 21.0065 11.9906 19.9766C9.07382 23.7991 7.8154 27.2676 8.366 30.7581C8.65111 32.5653 9.0447 33.3562 10.0741 35.125C12.2869 38.4946 16.4696 39.7231 18.6181 39.5953C19.4524 39.5457 20.7964 39.7347 21.8154 40.8845C22.8344 42.0348 21.6922 42.9347 20.8577 42.9844C18.0509 43.1515 11.6578 42.0496 8.23957 36.1761C7.17643 34.3493 6.73948 32.9996 6.49283 31.9752C6.40598 31.6145 6.30083 31.0438 6.30083 31.0438C3.91728 18.5387 16.3451 14.2709 20.7723 13.4691Z" fill="#296E59"/>
<path d="M38.5264 19.8105C39.0211 18.3599 40.378 18.8919 40.8386 19.584C42.3879 21.9123 44.6219 27.9559 41.2039 33.8289C40.1407 35.6556 39.1803 36.7052 38.4094 37.4293C38.1379 37.6843 37.6929 38.0599 37.6929 38.0599C27.9681 46.3604 18.0288 37.8169 15.1153 34.4142C15.1153 34.4142 18.1794 35.5525 22.8796 34.0832C28.0453 32.2788 33.3982 33.509 35.9766 35.1378C32.3801 38.0596 26.386 38.7057 25.1871 38.7057C29.9824 39.3003 33.6391 38.6476 36.4109 36.4293C37.8462 35.2806 38.3398 34.5468 39.3694 32.7778C41.2046 29.1917 40.1853 24.9837 38.9994 23.2018C38.5389 22.5099 38.032 21.2609 38.5264 19.8105Z" fill="#296E59"/>
<path d="M27.2792 26.0648C27.7717 26.126 28.1214 26.5715 28.0601 27.0601L28.0226 27.2947C27.915 27.8681 27.6541 28.6119 27.161 29.2598C26.5749 30.0297 25.642 30.6779 24.3079 30.6779C22.9739 30.6778 22.0407 30.0297 21.4548 29.2598C20.9618 28.6119 20.7007 27.868 20.5931 27.2947L20.5568 27.0601L20.5498 26.9695C20.5392 26.5175 20.8758 26.1221 21.3377 26.0648C21.7994 26.0077 22.2226 26.3085 22.3247 26.7488L22.341 26.8394L22.3633 26.98C22.43 27.3276 22.5963 27.7994 22.8901 28.1855C23.2035 28.5972 23.6411 28.8939 24.3079 28.894C24.9747 28.894 25.4122 28.597 25.7256 28.1855C26.0613 27.7445 26.2302 27.1915 26.2747 26.8394L26.2911 26.7488C26.3931 26.3084 26.8174 26.0075 27.2792 26.0648Z" fill="#296E59"/>
<path d="M22.4944 6C24.621 6.00002 26.0181 6.30014 27.0357 6.60046C27.3893 6.70484 27.9288 6.89624 27.943 6.90126C40.0516 11.1057 37.564 23.9156 36.0503 28.1205C36.0424 28.0742 35.4851 24.8959 31.879 21.6165C27.7208 18.0807 26.1186 12.8658 26.2513 9.83618C30.6002 11.4652 34.1608 16.2928 34.7602 17.3227C32.8816 12.9055 30.4833 10.091 27.161 8.81878C25.4406 8.16001 24.5536 8.10219 22.4944 8.10218C18.4463 8.31854 15.2829 11.2981 14.3204 13.2078C13.9465 13.9495 13.1094 15.0095 11.5961 15.31C10.0824 15.6103 9.86767 14.1784 10.2415 13.4366C11.4991 10.9415 15.6581 6 22.4944 6Z" fill="#296E59"/>
<path d="M18.9471 21.9858C19.934 21.9858 20.7347 22.7792 20.7348 23.7582C20.7348 24.7373 19.934 25.5317 18.9471 25.5317C17.9602 25.5316 17.1606 24.7372 17.1606 23.7582C17.1607 22.7792 17.9603 21.9859 18.9471 21.9858Z" fill="#296E59"/>
<path d="M29.6698 21.9858C30.6565 21.9861 31.4562 22.7793 31.4564 23.7582C31.4564 24.7371 30.6566 25.5314 29.6698 25.5317C28.6829 25.5317 27.8821 24.7373 27.8821 23.7582C27.8822 22.7792 28.683 21.9858 29.6698 21.9858Z" fill="#296E59"/>
</g>
<defs>
<clipPath id="clip0_345_2182">
<rect width="182.389" height="48" fill="white"/>
</clipPath>
</defs>
</svg>
